<?xml version="1.0" encoding="UTF-8" standalone="no"?>
<svg viewBox="0 0 50 50" xmlns="http://www.w3.org/2000/svg" xmlns:svg="http://www.w3.org/2000/svg">
<rect width="100%" height="100%" fill="black"/>

<circle style="fill:#00CC00;stroke:none" cx="13.5" cy="12.5" r="0.25" />
<circle style="fill:#00CC00;stroke:none" cx="13.5" cy="11.5" r="0.25" />
<circle style="fill:#00CC00;stroke:none" cx="13.5" cy="14.5" r="0.25" />
<circle style="fill:#00CC00;stroke:none" cx="13.5" cy="13.5" r="0.25" />
<circle style="fill:#00CC00;stroke:none" cx="14.5" cy="14.5" r="0.25" />
<circle style="fill:#00CC00;stroke:none" cx="12.5" cy="11.5" r="0.25" />
<circle style="fill:#00CC00;stroke:none" cx="14.5" cy="13.5" r="0.25" />
<circle style="fill:#00CC00;stroke:none" cx="12.5" cy="13.5" r="0.25" />
<circle style="fill:#00CC00;stroke:none" cx="14.5" cy="12.5" r="0.25" />
<circle style="fill:#00CC00;stroke:none" cx="15.5" cy="13.5" r="0.25" />
<circle style="fill:#00CC00;stroke:none" cx="15.5" cy="11.5" r="0.25" />
<circle style="fill:#00CC00;stroke:none" cx="14.5" cy="11.5" r="0.25" />
<circle style="fill:#00CC00;stroke:none" cx="16.5" cy="12.5" r="0.25" />
<circle style="fill:#00CC00;stroke:none" cx="15.5" cy="14.5" r="0.25" />
<circle style="fill:#00CC00;stroke:none" cx="16.5" cy="11.5" r="0.25" />
<circle style="fill:#00CC00;stroke:none" cx="16.5" cy="13.5" r="0.25" />
<circle style="fill:#00CC00;stroke:none" cx="16.5" cy="15.5" r="0.25" />
<circle style="fill:#00CC00;stroke:none" cx="18.5" cy="15.5" r="0.25" />
<circle style="fill:#00CC00;stroke:none" cx="16.5" cy="14.5" r="0.25" />
<circle style="fill:#00CC00;stroke:none" cx="18.5" cy="16.5" r="0.25" />
<circle style="fill:#00CC00;stroke:none" cx="19.5" cy="16.5" r="0.25" />
<circle style="fill:#00CC00;stroke:none" cx="18.5" cy="14.5" r="0.25" />
<circle style="fill:#00CC00;stroke:none" cx="20.5" cy="16.5" r="0.25" />
<circle style="fill:#00CC00;stroke:none" cx="21.5" cy="15.5" r="0.25" />
<circle style="fill:#00CC00;stroke:none" cx="20.5" cy="15.5" r="0.25" />
<circle style="fill:#00CC00;stroke:none" cx="22.5" cy="16.5" r="0.25" />
<circle style="fill:#00CC00;stroke:none" cx="19.5" cy="14.5" r="0.25" />
<circle style="fill:#00CC00;stroke:none" cx="22.5" cy="14.5" r="0.25" />
<circle style="fill:#00CC00;stroke:none" cx="20.5" cy="14.5" r="0.25" />
<circle style="fill:#00CC00;stroke:none" cx="23.5" cy="16.5" r="0.25" />
<circle style="fill:#00CC00;stroke:none" cx="21.5" cy="14.5" r="0.25" />
<circle style="fill:#00CC00;stroke:none" cx="23.5" cy="15.5" r="0.25" />
<circle style="fill:#00CC00;stroke:none" cx="18.5" cy="13.5" r="0.25" />
<circle style="fill:#00CC00;stroke:none" cx="18.5" cy="12.5" r="0.25" />
<circle style="fill:#00CC00;stroke:none" cx="19.5" cy="13.5" r="0.25" />
<circle style="fill:#00CC00;stroke:none" cx="18.5" cy="11.5" r="0.25" />
<circle style="fill:#00CC00;stroke:none" cx="20.5" cy="12.5" r="0.25" />
<circle style="fill:#00CC00;stroke:none" cx="20.5" cy="13.5" r="0.25" />
<circle style="fill:#00CC00;stroke:none" cx="19.5" cy="11.5" r="0.25" />
<circle style="fill:#00CC00;stroke:none" cx="21.5" cy="13.5" r="0.25" />
<circle style="fill:#00CC00;stroke:none" cx="21.5" cy="12.5" r="0.25" />
<circle style="fill:#00CC00;stroke:none" cx="20.5" cy="11.5" r="0.25" />
<circle style="fill:#00CC00;stroke:none" cx="22.5" cy="11.5" r="0.25" />
<circle style="fill:#00CC00;stroke:none" cx="21.5" cy="11.5" r="0.25" />
<circle style="fill:#00CC00;stroke:none" cx="23.5" cy="11.5" r="0.25" />
<circle style="fill:#00CC00;stroke:none" cx="23.5" cy="13.5" r="0.25" />
<circle style="fill:#00CC00;stroke:none" cx="23.5" cy="12.5" r="0.25" />
<circle style="fill:#00CC00;stroke:none" cx="22.5" cy="13.5" r="0.25" />
<circle style="fill:#00CC00;stroke:none" cx="24.5" cy="14.5" r="0.25" />
<circle style="fill:#00CC00;stroke:none" cx="24.5" cy="16.5" r="0.25" />
<circle style="fill:#00CC00;stroke:none" cx="24.5" cy="15.5" r="0.25" />
<circle style="fill:#00CC00;stroke:none" cx="23.5" cy="14.5" r="0.25" />
<circle style="fill:#00CC00;stroke:none" cx="25.5" cy="14.5" r="0.25" />
<circle style="fill:#00CC00;stroke:none" cx="25.5" cy="16.5" r="0.25" />
<circle style="fill:#00CC00;stroke:none" cx="26.5" cy="15.5" r="0.25" />
<circle style="fill:#00CC00;stroke:none" cx="26.5" cy="14.5" r="0.25" />
<circle style="fill:#00CC00;stroke:none" cx="28.5" cy="14.5" r="0.25" />
<circle style="fill:#00CC00;stroke:none" cx="27.5" cy="16.5" r="0.25" />
<circle style="fill:#00CC00;stroke:none" cx="27.5" cy="15.5" r="0.25" />
<circle style="fill:#00CC00;stroke:none" cx="27.5" cy="14.5" r="0.25" />
<circle style="fill:#00CC00;stroke:none" cx="29.5" cy="14.5" r="0.25" />
<circle style="fill:#00CC00;stroke:none" cx="29.5" cy="15.5" r="0.25" />
<circle style="fill:#00CC00;stroke:none" cx="28.5" cy="16.5" r="0.25" />
<circle style="fill:#00CC00;stroke:none" cx="29.5" cy="16.5" r="0.25" />
<circle style="fill:#00CC00;stroke:none" cx="26.5" cy="13.5" r="0.25" />
<circle style="fill:#00CC00;stroke:none" cx="25.5" cy="13.5" r="0.25" />
<circle style="fill:#00CC00;stroke:none" cx="27.5" cy="13.5" r="0.25" />
<circle style="fill:#00CC00;stroke:none" cx="24.5" cy="13.5" r="0.25" />
<circle style="fill:#00CC00;stroke:none" cx="24.5" cy="12.5" r="0.25" />
<circle style="fill:#00CC00;stroke:none" cx="26.5" cy="12.5" r="0.25" />
<circle style="fill:#00CC00;stroke:none" cx="24.5" cy="11.5" r="0.25" />
<circle style="fill:#00CC00;stroke:none" cx="25.5" cy="11.5" r="0.25" />
<circle style="fill:#00CC00;stroke:none" cx="28.5" cy="11.5" r="0.25" />
<circle style="fill:#00CC00;stroke:none" cx="27.5" cy="11.5" r="0.25" />
<circle style="fill:#00CC00;stroke:none" cx="27.5" cy="12.5" r="0.25" />
<circle style="fill:#00CC00;stroke:none" cx="26.5" cy="11.5" r="0.25" />
<circle style="fill:#00CC00;stroke:none" cx="28.5" cy="13.5" r="0.25" />
<circle style="fill:#00CC00;stroke:none" cx="29.5" cy="11.5" r="0.25" />
<circle style="fill:#00CC00;stroke:none" cx="29.5" cy="12.5" r="0.25" />
<circle style="fill:#00CC00;stroke:none" cx="29.5" cy="13.5" r="0.25" />
<circle style="fill:#00CC00;stroke:none" cx="31.5" cy="11.5" r="0.25" />
<circle style="fill:#00CC00;stroke:none" cx="33.5" cy="11.5" r="0.25" />
<circle style="fill:#00CC00;stroke:none" cx="32.5" cy="11.5" r="0.25" />
<circle style="fill:#00CC00;stroke:none" cx="34.5" cy="11.5" r="0.25" />
<circle style="fill:#00CC00;stroke:none" cx="35.5" cy="11.5" r="0.25" />
<circle style="fill:#00CC00;stroke:none" cx="34.5" cy="12.5" r="0.25" />
<circle style="fill:#00CC00;stroke:none" cx="36.5" cy="12.5" r="0.25" />
<circle style="fill:#00CC00;stroke:none" cx="35.5" cy="12.5" r="0.25" />
<circle style="fill:#00CC00;stroke:none" cx="32.5" cy="12.5" r="0.25" />
<circle style="fill:#00CC00;stroke:none" cx="31.5" cy="12.5" r="0.25" />
<circle style="fill:#00CC00;stroke:none" cx="33.5" cy="12.5" r="0.25" />
<circle style="fill:#00CC00;stroke:none" cx="32.5" cy="13.5" r="0.25" />
<circle style="fill:#00CC00;stroke:none" cx="34.5" cy="13.5" r="0.25" />
<circle style="fill:#FF0000;stroke:none" cx="36.5" cy="13.5" r="0.25" />
<circle style="fill:#FF0000;stroke:none" cx="35.5" cy="13.5" r="0.25" />
<circle style="fill:#00CC00;stroke:none" cx="32.5" cy="14.5" r="0.25" />
<circle style="fill:#FF0000;stroke:none" cx="33.5" cy="14.5" r="0.25" />
<circle style="fill:#FF0000;stroke:none" cx="35.5" cy="14.5" r="0.25" />
<circle style="fill:#FF0000;stroke:none" cx="34.5" cy="14.5" r="0.25" />
<circle style="fill:#FF0000;stroke:none" cx="36.5" cy="14.5" r="0.25" />
<circle style="fill:#FF0000;stroke:none" cx="32.5" cy="15.5" r="0.25" />
<circle style="fill:#FF0000;stroke:none" cx="34.5" cy="15.5" r="0.25" />
<circle style="fill:#FF0000;stroke:none" cx="33.5" cy="15.5" r="0.25" />
<circle style="fill:#FF0000;stroke:none" cx="35.5" cy="15.5" r="0.25" />
<circle style="fill:#FFFFFF;stroke:none" cx="34.5" cy="17.5" r="0.25" />
<circle style="fill:#0000CC;stroke:none" cx="29.5" cy="20.5" r="0.25" />
<circle style="fill:#FFFFFF;stroke:none" cx="34.5" cy="18.5" r="0.25" />
<circle style="fill:#0000CC;stroke:none" cx="36.5" cy="16.5" r="0.25" />
<circle style="fill:#0000CC;stroke:none" cx="29.5" cy="21.5" r="0.25" />
<circle style="fill:#0000CC;stroke:none" cx="36.5" cy="17.5" r="0.25" />
<circle style="fill:#0000CC;stroke:none" cx="36.5" cy="19.5" r="0.25" />
<circle style="fill:#0000CC;stroke:none" cx="29.5" cy="22.5" r="0.25" />
<circle style="fill:#0000CC;stroke:none" cx="36.5" cy="20.5" r="0.25" />
<circle style="fill:#FFFFFF;stroke:none" cx="34.5" cy="20.5" r="0.25" />
<circle style="fill:#0000CC;stroke:none" cx="29.5" cy="23.5" r="0.25" />
<circle style="fill:#FFFFFF;stroke:none" cx="34.5" cy="21.5" r="0.25" />
<circle style="fill:#FFFFFF;stroke:none" cx="34.5" cy="23.5" r="0.25" />
<circle style="fill:#FFFFFF;stroke:none" cx="34.5" cy="24.5" r="0.25" />
<circle style="fill:#0000CC;stroke:none" cx="36.5" cy="22.5" r="0.25" />
<circle style="fill:#0000CC;stroke:none" cx="36.5" cy="23.5" r="0.25" />
<circle style="fill:#FFFFFF;stroke:none" cx="34.5" cy="26.5" r="0.25" />
<circle style="fill:#0000CC;stroke:none" cx="29.5" cy="24.5" r="0.25" />
<circle style="fill:#FFFFFF;stroke:none" cx="34.5" cy="27.5" r="0.25" />
<circle style="fill:#0000CC;stroke:none" cx="36.5" cy="25.5" r="0.25" />
<circle style="fill:#0000CC;stroke:none" cx="29.5" cy="25.5" r="0.25" />
<circle style="fill:#0000CC;stroke:none" cx="36.5" cy="26.5" r="0.25" />
<circle style="fill:#0000CC;stroke:none" cx="36.5" cy="28.5" r="0.25" />
<circle style="fill:#0000CC;stroke:none" cx="29.5" cy="26.5" r="0.25" />
<circle style="fill:#0000CC;stroke:none" cx="36.5" cy="29.5" r="0.25" />
<circle style="fill:#FFFFFF;stroke:none" cx="34.5" cy="29.5" r="0.25" />
<circle style="fill:#0000CC;stroke:none" cx="29.5" cy="27.5" r="0.25" />
<circle style="fill:#FFFFFF;stroke:none" cx="34.5" cy="30.5" r="0.25" />
<circle style="fill:#FFFFFF;stroke:none" cx="34.5" cy="32.5" r="0.25" />
<circle style="fill:#FFFFFF;stroke:none" cx="34.5" cy="33.5" r="0.25" />
<circle style="fill:#0000CC;stroke:none" cx="36.5" cy="31.5" r="0.25" />
<circle style="fill:#0000CC;stroke:none" cx="36.5" cy="32.5" r="0.25" />
<circle style="fill:#00CC00;stroke:none" cx="31.5" cy="32.5" r="0.25" />
<circle style="fill:#00CC00;stroke:none" cx="31.5" cy="33.5" r="0.25" />
<circle style="fill:#00CC00;stroke:none" cx="32.5" cy="34.5" r="0.25" />
<circle style="fill:#00CC00;stroke:none" cx="32.5" cy="35.5" r="0.25" />
<circle style="fill:#00CC00;stroke:none" cx="31.5" cy="34.5" r="0.25" />
<circle style="fill:#00CC00;stroke:none" cx="31.5" cy="35.5" r="0.25" />
<circle style="fill:#00CC00;stroke:none" cx="35.5" cy="35.5" r="0.25" />
<circle style="fill:#00CC00;stroke:none" cx="36.5" cy="35.5" r="0.25" />
<circle style="fill:#00CC00;stroke:none" cx="34.5" cy="35.5" r="0.25" />
<circle style="fill:#00CC00;stroke:none" cx="35.5" cy="36.5" r="0.25" />
<circle style="fill:#00CC00;stroke:none" cx="34.5" cy="36.5" r="0.25" />
<circle style="fill:#00CC00;stroke:none" cx="32.5" cy="36.5" r="0.25" />
<circle style="fill:#00CC00;stroke:none" cx="33.5" cy="36.5" r="0.25" />
<circle style="fill:#00CC00;stroke:none" cx="31.5" cy="36.5" r="0.25" />
<circle style="fill:#00CC00;stroke:none" cx="29.5" cy="34.5" r="0.25" />
<circle style="fill:#00CC00;stroke:none" cx="29.5" cy="35.5" r="0.25" />
<circle style="fill:#00CC00;stroke:none" cx="29.5" cy="36.5" r="0.25" />
<circle style="fill:#00CC00;stroke:none" cx="28.5" cy="34.5" r="0.25" />
<circle style="fill:#00CC00;stroke:none" cx="26.5" cy="36.5" r="0.25" />
<circle style="fill:#00CC00;stroke:none" cx="27.5" cy="35.5" r="0.25" />
<circle style="fill:#00CC00;stroke:none" cx="27.5" cy="36.5" r="0.25" />
<circle style="fill:#00CC00;stroke:none" cx="28.5" cy="36.5" r="0.25" />
<circle style="fill:#00CC00;stroke:none" cx="25.5" cy="36.5" r="0.25" />
<circle style="fill:#00CC00;stroke:none" cx="24.5" cy="36.5" r="0.25" />
<circle style="fill:#00CC00;stroke:none" cx="26.5" cy="35.5" r="0.25" />
<circle style="fill:#00CC00;stroke:none" cx="24.5" cy="35.5" r="0.25" />
<circle style="fill:#00CC00;stroke:none" cx="24.5" cy="34.5" r="0.25" />
<circle style="fill:#00CC00;stroke:none" cx="27.5" cy="34.5" r="0.25" />
<circle style="fill:#00CC00;stroke:none" cx="25.5" cy="34.5" r="0.25" />
<circle style="fill:#00CC00;stroke:none" cx="26.5" cy="34.5" r="0.25" />
<circle style="fill:#00CC00;stroke:none" cx="29.5" cy="31.5" r="0.25" />
<circle style="fill:#00CC00;stroke:none" cx="28.5" cy="31.5" r="0.25" />
<circle style="fill:#00CC00;stroke:none" cx="29.5" cy="32.5" r="0.25" />
<circle style="fill:#00CC00;stroke:none" cx="29.5" cy="33.5" r="0.25" />
<circle style="fill:#00CC00;stroke:none" cx="27.5" cy="33.5" r="0.25" />
<circle style="fill:#00CC00;stroke:none" cx="27.5" cy="32.5" r="0.25" />
<circle style="fill:#00CC00;stroke:none" cx="27.5" cy="31.5" r="0.25" />
<circle style="fill:#00CC00;stroke:none" cx="28.5" cy="33.5" r="0.25" />
<circle style="fill:#00CC00;stroke:none" cx="26.5" cy="33.5" r="0.25" />
<circle style="fill:#00CC00;stroke:none" cx="26.5" cy="32.5" r="0.25" />
<circle style="fill:#00CC00;stroke:none" cx="25.5" cy="31.5" r="0.25" />
<circle style="fill:#00CC00;stroke:none" cx="25.5" cy="33.5" r="0.25" />
<circle style="fill:#00CC00;stroke:none" cx="23.5" cy="33.5" r="0.25" />
<circle style="fill:#00CC00;stroke:none" cx="24.5" cy="32.5" r="0.25" />
<circle style="fill:#00CC00;stroke:none" cx="24.5" cy="31.5" r="0.25" />
<circle style="fill:#00CC00;stroke:none" cx="24.5" cy="33.5" r="0.25" />
<circle style="fill:#00CC00;stroke:none" cx="22.5" cy="34.5" r="0.25" />
<circle style="fill:#00CC00;stroke:none" cx="23.5" cy="35.5" r="0.25" />
<circle style="fill:#00CC00;stroke:none" cx="23.5" cy="34.5" r="0.25" />
<circle style="fill:#00CC00;stroke:none" cx="23.5" cy="36.5" r="0.25" />
<circle style="fill:#00CC00;stroke:none" cx="21.5" cy="36.5" r="0.25" />
<circle style="fill:#00CC00;stroke:none" cx="22.5" cy="36.5" r="0.25" />
<circle style="fill:#00CC00;stroke:none" cx="20.5" cy="36.5" r="0.25" />
<circle style="fill:#00CC00;stroke:none" cx="21.5" cy="35.5" r="0.25" />
<circle style="fill:#00CC00;stroke:none" cx="21.5" cy="34.5" r="0.25" />
<circle style="fill:#00CC00;stroke:none" cx="19.5" cy="36.5" r="0.25" />
<circle style="fill:#00CC00;stroke:none" cx="20.5" cy="34.5" r="0.25" />
<circle style="fill:#00CC00;stroke:none" cx="20.5" cy="35.5" r="0.25" />
<circle style="fill:#00CC00;stroke:none" cx="18.5" cy="36.5" r="0.25" />
<circle style="fill:#00CC00;stroke:none" cx="19.5" cy="34.5" r="0.25" />
<circle style="fill:#00CC00;stroke:none" cx="18.5" cy="35.5" r="0.25" />
<circle style="fill:#00CC00;stroke:none" cx="18.5" cy="34.5" r="0.25" />
<circle style="fill:#00CC00;stroke:none" cx="23.5" cy="32.5" r="0.25" />
<circle style="fill:#00CC00;stroke:none" cx="21.5" cy="33.5" r="0.25" />
<circle style="fill:#00CC00;stroke:none" cx="23.5" cy="31.5" r="0.25" />
<circle style="fill:#00CC00;stroke:none" cx="20.5" cy="33.5" r="0.25" />
<circle style="fill:#00CC00;stroke:none" cx="22.5" cy="33.5" r="0.25" />
<circle style="fill:#00CC00;stroke:none" cx="19.5" cy="33.5" r="0.25" />
<circle style="fill:#00CC00;stroke:none" cx="22.5" cy="31.5" r="0.25" />
<circle style="fill:#00CC00;stroke:none" cx="20.5" cy="32.5" r="0.25" />
<circle style="fill:#00CC00;stroke:none" cx="21.5" cy="32.5" r="0.25" />
<circle style="fill:#00CC00;stroke:none" cx="20.5" cy="31.5" r="0.25" />
<circle style="fill:#00CC00;stroke:none" cx="18.5" cy="33.5" r="0.25" />
<circle style="fill:#00CC00;stroke:none" cx="19.5" cy="31.5" r="0.25" />
<circle style="fill:#00CC00;stroke:none" cx="18.5" cy="31.5" r="0.25" />
<circle style="fill:#00CC00;stroke:none" cx="16.5" cy="33.5" r="0.25" />
<circle style="fill:#00CC00;stroke:none" cx="18.5" cy="32.5" r="0.25" />
<circle style="fill:#00CC00;stroke:none" cx="16.5" cy="32.5" r="0.25" />
<circle style="fill:#00CC00;stroke:none" cx="16.5" cy="34.5" r="0.25" />
<circle style="fill:#00CC00;stroke:none" cx="16.5" cy="36.5" r="0.25" />
<circle style="fill:#00CC00;stroke:none" cx="15.5" cy="33.5" r="0.25" />
<circle style="fill:#00CC00;stroke:none" cx="16.5" cy="35.5" r="0.25" />
<circle style="fill:#00CC00;stroke:none" cx="14.5" cy="36.5" r="0.25" />
<circle style="fill:#00CC00;stroke:none" cx="15.5" cy="36.5" r="0.25" />
<circle style="fill:#00CC00;stroke:none" cx="15.5" cy="34.5" r="0.25" />
<circle style="fill:#00CC00;stroke:none" cx="14.5" cy="35.5" r="0.25" />
<circle style="fill:#00CC00;stroke:none" cx="12.5" cy="34.5" r="0.25" />
<circle style="fill:#00CC00;stroke:none" cx="14.5" cy="34.5" r="0.25" />
<circle style="fill:#00CC00;stroke:none" cx="12.5" cy="36.5" r="0.25" />
<circle style="fill:#00CC00;stroke:none" cx="14.5" cy="33.5" r="0.25" />
<circle style="fill:#00CC00;stroke:none" cx="13.5" cy="34.5" r="0.25" />
<circle style="fill:#00CC00;stroke:none" cx="13.5" cy="33.5" r="0.25" />
<circle style="fill:#00CC00;stroke:none" cx="13.5" cy="36.5" r="0.25" />
<circle style="fill:#00CC00;stroke:none" cx="13.5" cy="35.5" r="0.25" />
<circle style="fill:#00CC00;stroke:none" cx="11.5" cy="35.5" r="0.25" />
<circle style="fill:#00CC00;stroke:none" cx="12.5" cy="33.5" r="0.25" />
<circle style="fill:#00CC00;stroke:none" cx="11.5" cy="34.5" r="0.25" />
<circle style="fill:#00CC00;stroke:none" cx="11.5" cy="33.5" r="0.25" />
<circle style="fill:#00CC00;stroke:none" cx="14.5" cy="32.5" r="0.25" />
<circle style="fill:#00CC00;stroke:none" cx="15.5" cy="31.5" r="0.25" />
<circle style="fill:#00CC00;stroke:none" cx="13.5" cy="32.5" r="0.25" />
<circle style="fill:#00CC00;stroke:none" cx="14.5" cy="31.5" r="0.25" />
<circle style="fill:#00CC00;stroke:none" cx="13.5" cy="31.5" r="0.25" />
<circle style="fill:#00CC00;stroke:none" cx="11.5" cy="32.5" r="0.25" />
<circle style="fill:#00CC00;stroke:none" cx="12.5" cy="31.5" r="0.25" />
<circle style="fill:#00CC00;stroke:none" cx="11.5" cy="31.5" r="0.25" />
<circle style="fill:#00CC00;stroke:none" cx="11.5" cy="29.5" r="0.25" />
<circle style="fill:#00CC00;stroke:none" cx="12.5" cy="29.5" r="0.25" />
<circle style="fill:#00CC00;stroke:none" cx="11.5" cy="28.5" r="0.25" />
<circle style="fill:#00CC00;stroke:none" cx="13.5" cy="29.5" r="0.25" />
<circle style="fill:#00CC00;stroke:none" cx="14.5" cy="29.5" r="0.25" />
<circle style="fill:#00CC00;stroke:none" cx="14.5" cy="28.5" r="0.25" />
<circle style="fill:#00CC00;stroke:none" cx="15.5" cy="29.5" r="0.25" />
<circle style="fill:#00CC00;stroke:none" cx="13.5" cy="28.5" r="0.25" />
<circle style="fill:#00CC00;stroke:none" cx="15.5" cy="27.5" r="0.25" />
<circle style="fill:#00CC00;stroke:none" cx="13.5" cy="27.5" r="0.25" />
<circle style="fill:#00CC00;stroke:none" cx="14.5" cy="27.5" r="0.25" />
<circle style="fill:#00CC00;stroke:none" cx="12.5" cy="27.5" r="0.25" />
<circle style="fill:#00CC00;stroke:none" cx="11.5" cy="27.5" r="0.25" />
<circle style="fill:#00CC00;stroke:none" cx="13.5" cy="26.5" r="0.25" />
<circle style="fill:#00CC00;stroke:none" cx="11.5" cy="26.5" r="0.25" />
<circle style="fill:#00CC00;stroke:none" cx="12.5" cy="26.5" r="0.25" />
<circle style="fill:#00CC00;stroke:none" cx="15.5" cy="26.5" r="0.25" />
<circle style="fill:#00CC00;stroke:none" cx="11.5" cy="25.5" r="0.25" />
<circle style="fill:#00CC00;stroke:none" cx="14.5" cy="26.5" r="0.25" />
<circle style="fill:#00CC00;stroke:none" cx="11.5" cy="24.5" r="0.25" />
<circle style="fill:#00CC00;stroke:none" cx="12.5" cy="24.5" r="0.25" />
<circle style="fill:#00CC00;stroke:none" cx="13.5" cy="24.5" r="0.25" />
<circle style="fill:#00CC00;stroke:none" cx="12.5" cy="23.5" r="0.25" />
<circle style="fill:#00CC00;stroke:none" cx="13.5" cy="23.5" r="0.25" />
<circle style="fill:#00CC00;stroke:none" cx="14.5" cy="24.5" r="0.25" />
<circle style="fill:#00CC00;stroke:none" cx="15.5" cy="24.5" r="0.25" />
<circle style="fill:#00CC00;stroke:none" cx="14.5" cy="23.5" r="0.25" />
<circle style="fill:#00CC00;stroke:none" cx="15.5" cy="23.5" r="0.25" />
<circle style="fill:#00CC00;stroke:none" cx="11.5" cy="23.5" r="0.25" />
<circle style="fill:#00CC00;stroke:none" cx="14.5" cy="21.5" r="0.25" />
<circle style="fill:#00CC00;stroke:none" cx="11.5" cy="22.5" r="0.25" />
<circle style="fill:#00CC00;stroke:none" cx="15.5" cy="21.5" r="0.25" />
<circle style="fill:#00CC00;stroke:none" cx="12.5" cy="21.5" r="0.25" />
<circle style="fill:#00CC00;stroke:none" cx="11.5" cy="21.5" r="0.25" />
<circle style="fill:#00CC00;stroke:none" cx="13.5" cy="21.5" r="0.25" />
<circle style="fill:#00CC00;stroke:none" cx="11.5" cy="20.5" r="0.25" />
<circle style="fill:#00CC00;stroke:none" cx="12.5" cy="20.5" r="0.25" />
<circle style="fill:#00CC00;stroke:none" cx="14.5" cy="20.5" r="0.25" />
<circle style="fill:#00CC00;stroke:none" cx="13.5" cy="20.5" r="0.25" />
<circle style="fill:#00CC00;stroke:none" cx="15.5" cy="20.5" r="0.25" />
<circle style="fill:#00CC00;stroke:none" cx="13.5" cy="19.5" r="0.25" />
<circle style="fill:#00CC00;stroke:none" cx="14.5" cy="18.5" r="0.25" />
<circle style="fill:#00CC00;stroke:none" cx="14.5" cy="19.5" r="0.25" />
<circle style="fill:#00CC00;stroke:none" cx="15.5" cy="18.5" r="0.25" />
<circle style="fill:#00CC00;stroke:none" cx="13.5" cy="18.5" r="0.25" />
<circle style="fill:#00CC00;stroke:none" cx="11.5" cy="19.5" r="0.25" />
<circle style="fill:#00CC00;stroke:none" cx="12.5" cy="18.5" r="0.25" />
<circle style="fill:#00CC00;stroke:none" cx="11.5" cy="18.5" r="0.25" />
<circle style="fill:#00CC00;stroke:none" cx="11.5" cy="16.5" r="0.25" />
<circle style="fill:#00CC00;stroke:none" cx="12.5" cy="16.5" r="0.25" />
<circle style="fill:#00CC00;stroke:none" cx="11.5" cy="15.5" r="0.25" />
<circle style="fill:#00CC00;stroke:none" cx="13.5" cy="16.5" r="0.25" />
<circle style="fill:#00CC00;stroke:none" cx="14.5" cy="16.5" r="0.25" />
<circle style="fill:#00CC00;stroke:none" cx="13.5" cy="15.5" r="0.25" />
<circle style="fill:#00CC00;stroke:none" cx="15.5" cy="16.5" r="0.25" />
<circle style="fill:#00CC00;stroke:none" cx="14.5" cy="15.5" r="0.25" />
<circle style="fill:#00CC00;stroke:none" cx="11.5" cy="14.5" r="0.25" />
<circle style="fill:#00CC00;stroke:none" cx="11.5" cy="13.5" r="0.25" />
<circle style="fill:#00CC00;stroke:none" cx="12.5" cy="14.5" r="0.25" />
<circle style="fill:#00CC00;stroke:none" cx="11.5" cy="12.5" r="0.25" />
<circle style="fill:#FF00FF;stroke:none" cx="16.5" cy="29.5" r="0.25" />
<circle style="fill:#0000CC;stroke:none" cx="12.5" cy="35.5" r="0.25" />
<circle style="fill:#0000CC;stroke:none" cx="15.5" cy="35.5" r="0.25" />
<circle style="fill:#0000CC;stroke:none" cx="19.5" cy="35.5" r="0.25" />
<circle style="fill:#0000CC;stroke:none" cx="22.5" cy="35.5" r="0.25" />
<circle style="fill:#0000CC;stroke:none" cx="25.5" cy="35.5" r="0.25" />
<circle style="fill:#0000CC;stroke:none" cx="28.5" cy="35.5" r="0.25" />
<circle style="fill:#0000CC;stroke:none" cx="33.5" cy="35.5" r="0.25" />
<circle style="fill:#0000CC;stroke:none" cx="12.5" cy="32.5" r="0.25" />
<circle style="fill:#0000CC;stroke:none" cx="15.5" cy="32.5" r="0.25" />
<circle style="fill:#0000CC;stroke:none" cx="19.5" cy="32.5" r="0.25" />
<circle style="fill:#0000CC;stroke:none" cx="22.5" cy="32.5" r="0.25" />
<circle style="fill:#0000CC;stroke:none" cx="25.5" cy="32.5" r="0.25" />
<circle style="fill:#0000CC;stroke:none" cx="28.5" cy="32.5" r="0.25" />
<circle style="fill:#0000CC;stroke:none" cx="18.5" cy="29.5" r="0.25" />
<circle style="fill:#0000CC;stroke:none" cx="12.5" cy="28.5" r="0.25" />
<circle style="fill:#0000CC;stroke:none" cx="15.5" cy="28.5" r="0.25" />
<circle style="fill:#0000CC;stroke:none" cx="19.5" cy="28.5" r="0.25" />
<circle style="fill:#0000CC;stroke:none" cx="20.5" cy="28.5" r="0.25" />
<circle style="fill:#0000CC;stroke:none" cx="21.5" cy="28.5" r="0.25" />
<circle style="fill:#0000CC;stroke:none" cx="22.5" cy="28.5" r="0.25" />
<circle style="fill:#0000CC;stroke:none" cx="23.5" cy="28.5" r="0.25" />
<circle style="fill:#0000CC;stroke:none" cx="24.5" cy="28.5" r="0.25" />
<circle style="fill:#0000CC;stroke:none" cx="25.5" cy="28.5" r="0.25" />
<circle style="fill:#0000CC;stroke:none" cx="26.5" cy="28.5" r="0.25" />
<circle style="fill:#0000CC;stroke:none" cx="27.5" cy="28.5" r="0.25" />
<circle style="fill:#0000CC;stroke:none" cx="29.5" cy="28.5" r="0.25" />
<circle style="fill:#0000CC;stroke:none" cx="19.5" cy="27.5" r="0.25" />
<circle style="fill:#0000CC;stroke:none" cx="20.5" cy="27.5" r="0.25" />
<circle style="fill:#0000CC;stroke:none" cx="27.5" cy="27.5" r="0.25" />
<circle style="fill:#0000CC;stroke:none" cx="28.5" cy="27.5" r="0.25" />
<circle style="fill:#0000CC;stroke:none" cx="19.5" cy="26.5" r="0.25" />
<circle style="fill:#0000CC;stroke:none" cx="21.5" cy="26.5" r="0.25" />
<circle style="fill:#0000CC;stroke:none" cx="22.5" cy="26.5" r="0.25" />
<circle style="fill:#0000CC;stroke:none" cx="23.5" cy="26.5" r="0.25" />
<circle style="fill:#0000CC;stroke:none" cx="24.5" cy="26.5" r="0.25" />
<circle style="fill:#0000CC;stroke:none" cx="25.5" cy="26.5" r="0.25" />
<circle style="fill:#0000CC;stroke:none" cx="27.5" cy="26.5" r="0.25" />
<circle style="fill:#0000CC;stroke:none" cx="28.5" cy="26.5" r="0.25" />
<circle style="fill:#0000CC;stroke:none" cx="12.5" cy="25.5" r="0.25" />
<circle style="fill:#0000CC;stroke:none" cx="15.5" cy="25.5" r="0.25" />
<circle style="fill:#0000CC;stroke:none" cx="19.5" cy="25.5" r="0.25" />
<circle style="fill:#0000CC;stroke:none" cx="21.5" cy="25.5" r="0.25" />
<circle style="fill:#0000CC;stroke:none" cx="22.5" cy="25.5" r="0.25" />
<circle style="fill:#0000CC;stroke:none" cx="23.5" cy="25.5" r="0.25" />
<circle style="fill:#0000CC;stroke:none" cx="24.5" cy="25.5" r="0.25" />
<circle style="fill:#0000CC;stroke:none" cx="25.5" cy="25.5" r="0.25" />
<circle style="fill:#0000CC;stroke:none" cx="27.5" cy="25.5" r="0.25" />
<circle style="fill:#0000CC;stroke:none" cx="28.5" cy="25.5" r="0.25" />
<circle style="fill:#0000CC;stroke:none" cx="19.5" cy="24.5" r="0.25" />
<circle style="fill:#0000CC;stroke:none" cx="21.5" cy="24.5" r="0.25" />
<circle style="fill:#0000CC;stroke:none" cx="22.5" cy="24.5" r="0.25" />
<circle style="fill:#0000CC;stroke:none" cx="23.5" cy="24.5" r="0.25" />
<circle style="fill:#0000CC;stroke:none" cx="24.5" cy="24.5" r="0.25" />
<circle style="fill:#0000CC;stroke:none" cx="25.5" cy="24.5" r="0.25" />
<circle style="fill:#0000CC;stroke:none" cx="27.5" cy="24.5" r="0.25" />
<circle style="fill:#0000CC;stroke:none" cx="28.5" cy="24.5" r="0.25" />
<circle style="fill:#0000CC;stroke:none" cx="19.5" cy="23.5" r="0.25" />
<circle style="fill:#0000CC;stroke:none" cx="21.5" cy="23.5" r="0.25" />
<circle style="fill:#0000CC;stroke:none" cx="22.5" cy="23.5" r="0.25" />
<circle style="fill:#0000CC;stroke:none" cx="23.5" cy="23.5" r="0.25" />
<circle style="fill:#0000CC;stroke:none" cx="24.5" cy="23.5" r="0.25" />
<circle style="fill:#0000CC;stroke:none" cx="25.5" cy="23.5" r="0.25" />
<circle style="fill:#0000CC;stroke:none" cx="27.5" cy="23.5" r="0.25" />
<circle style="fill:#0000CC;stroke:none" cx="28.5" cy="23.5" r="0.25" />
<circle style="fill:#0000CC;stroke:none" cx="12.5" cy="22.5" r="0.25" />
<circle style="fill:#0000CC;stroke:none" cx="15.5" cy="22.5" r="0.25" />
<circle style="fill:#0000CC;stroke:none" cx="19.5" cy="22.5" r="0.25" />
<circle style="fill:#0000CC;stroke:none" cx="21.5" cy="22.5" r="0.25" />
<circle style="fill:#0000CC;stroke:none" cx="22.5" cy="22.5" r="0.25" />
<circle style="fill:#0000CC;stroke:none" cx="23.5" cy="22.5" r="0.25" />
<circle style="fill:#0000CC;stroke:none" cx="24.5" cy="22.5" r="0.25" />
<circle style="fill:#0000CC;stroke:none" cx="25.5" cy="22.5" r="0.25" />
<circle style="fill:#0000CC;stroke:none" cx="27.5" cy="22.5" r="0.25" />
<circle style="fill:#0000CC;stroke:none" cx="28.5" cy="22.5" r="0.25" />
<circle style="fill:#0000CC;stroke:none" cx="19.5" cy="21.5" r="0.25" />
<circle style="fill:#0000CC;stroke:none" cx="21.5" cy="21.5" r="0.25" />
<circle style="fill:#0000CC;stroke:none" cx="22.5" cy="21.5" r="0.25" />
<circle style="fill:#0000CC;stroke:none" cx="23.5" cy="21.5" r="0.25" />
<circle style="fill:#0000CC;stroke:none" cx="24.5" cy="21.5" r="0.25" />
<circle style="fill:#0000CC;stroke:none" cx="25.5" cy="21.5" r="0.25" />
<circle style="fill:#0000CC;stroke:none" cx="27.5" cy="21.5" r="0.25" />
<circle style="fill:#0000CC;stroke:none" cx="19.5" cy="20.5" r="0.25" />
<circle style="fill:#0000CC;stroke:none" cx="20.5" cy="20.5" r="0.25" />
<circle style="fill:#0000CC;stroke:none" cx="27.5" cy="20.5" r="0.25" />
<circle style="fill:#0000CC;stroke:none" cx="12.5" cy="19.5" r="0.25" />
<circle style="fill:#0000CC;stroke:none" cx="15.5" cy="19.5" r="0.25" />
<circle style="fill:#0000CC;stroke:none" cx="18.5" cy="19.5" r="0.25" />
<circle style="fill:#0000CC;stroke:none" cx="19.5" cy="19.5" r="0.25" />
<circle style="fill:#0000CC;stroke:none" cx="20.5" cy="19.5" r="0.25" />
<circle style="fill:#0000CC;stroke:none" cx="21.5" cy="19.5" r="0.25" />
<circle style="fill:#0000CC;stroke:none" cx="22.5" cy="19.5" r="0.25" />
<circle style="fill:#0000CC;stroke:none" cx="23.5" cy="19.5" r="0.25" />
<circle style="fill:#0000CC;stroke:none" cx="24.5" cy="19.5" r="0.25" />
<circle style="fill:#0000CC;stroke:none" cx="25.5" cy="19.5" r="0.25" />
<circle style="fill:#0000CC;stroke:none" cx="26.5" cy="19.5" r="0.25" />
<circle style="fill:#0000CC;stroke:none" cx="27.5" cy="19.5" r="0.25" />
<circle style="fill:#0000CC;stroke:none" cx="28.5" cy="19.5" r="0.25" />
<circle style="fill:#0000CC;stroke:none" cx="29.5" cy="19.5" r="0.25" />
<circle style="fill:#0000CC;stroke:none" cx="18.5" cy="18.5" r="0.25" />
<circle style="fill:#0000CC;stroke:none" cx="19.5" cy="18.5" r="0.25" />
<circle style="fill:#0000CC;stroke:none" cx="12.5" cy="15.5" r="0.25" />
<circle style="fill:#0000CC;stroke:none" cx="15.5" cy="15.5" r="0.25" />
<circle style="fill:#0000CC;stroke:none" cx="19.5" cy="15.5" r="0.25" />
<circle style="fill:#0000CC;stroke:none" cx="22.5" cy="15.5" r="0.25" />
<circle style="fill:#0000CC;stroke:none" cx="25.5" cy="15.5" r="0.25" />
<circle style="fill:#0000CC;stroke:none" cx="28.5" cy="15.5" r="0.25" />
<circle style="fill:#0000CC;stroke:none" cx="33.5" cy="13.5" r="0.25" />
<circle style="fill:#0000CC;stroke:none" cx="12.5" cy="12.5" r="0.25" />
<circle style="fill:#0000CC;stroke:none" cx="15.5" cy="12.5" r="0.25" />
<circle style="fill:#0000CC;stroke:none" cx="19.5" cy="12.5" r="0.25" />
<circle style="fill:#0000CC;stroke:none" cx="22.5" cy="12.5" r="0.25" />
<circle style="fill:#0000CC;stroke:none" cx="25.5" cy="12.5" r="0.25" />
<circle style="fill:#0000CC;stroke:none" cx="28.5" cy="12.5" r="0.25" />
<circle style="fill:#FFCC00;stroke:none" cx="21.5" cy="27.5" r="0.25" />
<circle style="fill:#FFCC00;stroke:none" cx="22.5" cy="27.5" r="0.25" />
<circle style="fill:#FFCC00;stroke:none" cx="23.5" cy="27.5" r="0.25" />
<circle style="fill:#FFCC00;stroke:none" cx="24.5" cy="27.5" r="0.25" />
<circle style="fill:#FFCC00;stroke:none" cx="25.5" cy="27.5" r="0.25" />
<circle style="fill:#FFCC00;stroke:none" cx="26.5" cy="27.5" r="0.25" />
<circle style="fill:#FFCC00;stroke:none" cx="20.5" cy="26.5" r="0.25" />
<circle style="fill:#FFCC00;stroke:none" cx="26.5" cy="26.5" r="0.25" />
<circle style="fill:#FFCC00;stroke:none" cx="20.5" cy="25.5" r="0.25" />
<circle style="fill:#FFCC00;stroke:none" cx="26.5" cy="25.5" r="0.25" />
<circle style="fill:#FFCC00;stroke:none" cx="20.5" cy="24.5" r="0.25" />
<circle style="fill:#FFCC00;stroke:none" cx="26.5" cy="24.5" r="0.25" />
<circle style="fill:#FFCC00;stroke:none" cx="20.5" cy="23.5" r="0.25" />
<circle style="fill:#FFCC00;stroke:none" cx="26.5" cy="23.5" r="0.25" />
<circle style="fill:#FFCC00;stroke:none" cx="20.5" cy="22.5" r="0.25" />
<circle style="fill:#FFCC00;stroke:none" cx="26.5" cy="22.5" r="0.25" />
<circle style="fill:#FFCC00;stroke:none" cx="20.5" cy="21.5" r="0.25" />
<circle style="fill:#FFCC00;stroke:none" cx="26.5" cy="21.5" r="0.25" />
<circle style="fill:#FFCC00;stroke:none" cx="21.5" cy="20.5" r="0.25" />
<circle style="fill:#FFCC00;stroke:none" cx="22.5" cy="20.5" r="0.25" />
<circle style="fill:#FFCC00;stroke:none" cx="23.5" cy="20.5" r="0.25" />
<circle style="fill:#FFCC00;stroke:none" cx="24.5" cy="20.5" r="0.25" />
<circle style="fill:#FFCC00;stroke:none" cx="25.5" cy="20.5" r="0.25" />
<circle style="fill:#FFCC00;stroke:none" cx="26.5" cy="20.5" r="0.25" />
<circle style="fill:#FFCC00;stroke:none" cx="20.5" cy="29.5" r="0.25" />
<circle style="fill:#FFCC00;stroke:none" cx="26.5" cy="29.5" r="0.25" />
<circle style="fill:#FFCC00;stroke:none" cx="29.5" cy="29.5" r="0.25" />
<circle style="fill:#FFCC00;stroke:none" cx="18.5" cy="27.5" r="0.25" />
<circle style="fill:#FFCC00;stroke:none" cx="18.5" cy="24.5" r="0.25" />
<circle style="fill:#FFCC00;stroke:none" cx="18.5" cy="21.5" r="0.25" />
<circle style="fill:#FFCC00;stroke:none" cx="21.5" cy="18.5" r="0.25" />
<circle style="fill:#FFCC00;stroke:none" cx="26.5" cy="18.5" r="0.25" />
<circle style="fill:#FFCC00;stroke:none" cx="29.5" cy="18.5" r="0.25" />
<circle style="fill:#FFCC00;stroke:none" cx="18.5" cy="23.5" r="0.25" />
<circle style="fill:#FFCC00;stroke:none" cx="18.5" cy="22.5" r="0.25" />
<circle style="fill:#FFCC00;stroke:none" cx="18.5" cy="20.5" r="0.25" />
<circle style="fill:#FFCC00;stroke:none" cx="18.5" cy="28.5" r="0.25" />
<circle style="fill:#FFCC00;stroke:none" cx="18.5" cy="26.5" r="0.25" />
<circle style="fill:#FFCC00;stroke:none" cx="18.5" cy="25.5" r="0.25" />
<circle style="fill:#FFCC00;stroke:none" cx="19.5" cy="29.5" r="0.25" />
<circle style="fill:#FFCC00;stroke:none" cx="21.5" cy="29.5" r="0.25" />
<circle style="fill:#FFCC00;stroke:none" cx="22.5" cy="29.5" r="0.25" />
<circle style="fill:#FFCC00;stroke:none" cx="23.5" cy="29.5" r="0.25" />
<circle style="fill:#FFCC00;stroke:none" cx="24.5" cy="29.5" r="0.25" />
<circle style="fill:#FFCC00;stroke:none" cx="25.5" cy="29.5" r="0.25" />
<circle style="fill:#FFCC00;stroke:none" cx="27.5" cy="29.5" r="0.25" />
<circle style="fill:#FFCC00;stroke:none" cx="28.5" cy="29.5" r="0.25" />
<circle style="fill:#FFCC00;stroke:none" cx="28.5" cy="28.5" r="0.25" />
<circle style="fill:#0000CC;stroke:none" cx="33.5" cy="34.5" r="0.25" />
<circle style="fill:#0000CC;stroke:none" cx="34.5" cy="34.5" r="0.25" />
<circle style="fill:#0000CC;stroke:none" cx="35.5" cy="34.5" r="0.25" />
<circle style="fill:#0000CC;stroke:none" cx="36.5" cy="34.5" r="0.25" />
<circle style="fill:#0000CC;stroke:none" cx="32.5" cy="33.5" r="0.25" />
<circle style="fill:#0000CC;stroke:none" cx="32.5" cy="32.5" r="0.25" />
<circle style="fill:#0000CC;stroke:none" cx="35.5" cy="32.5" r="0.25" />
<circle style="fill:#0000CC;stroke:none" cx="32.5" cy="31.5" r="0.25" />
<circle style="fill:#0000CC;stroke:none" cx="33.5" cy="31.5" r="0.25" />
<circle style="fill:#0000CC;stroke:none" cx="34.5" cy="31.5" r="0.25" />
<circle style="fill:#0000CC;stroke:none" cx="35.5" cy="31.5" r="0.25" />
<circle style="fill:#0000CC;stroke:none" cx="31.5" cy="30.5" r="0.25" />
<circle style="fill:#0000CC;stroke:none" cx="35.5" cy="29.5" r="0.25" />
<circle style="fill:#0000CC;stroke:none" cx="31.5" cy="28.5" r="0.25" />
<circle style="fill:#0000CC;stroke:none" cx="32.5" cy="28.5" r="0.25" />
<circle style="fill:#0000CC;stroke:none" cx="33.5" cy="28.5" r="0.25" />
<circle style="fill:#0000CC;stroke:none" cx="34.5" cy="28.5" r="0.25" />
<circle style="fill:#0000CC;stroke:none" cx="35.5" cy="28.5" r="0.25" />
<circle style="fill:#0000CC;stroke:none" cx="31.5" cy="27.5" r="0.25" />
<circle style="fill:#0000CC;stroke:none" cx="35.5" cy="26.5" r="0.25" />
<circle style="fill:#0000CC;stroke:none" cx="31.5" cy="25.5" r="0.25" />
<circle style="fill:#0000CC;stroke:none" cx="32.5" cy="25.5" r="0.25" />
<circle style="fill:#0000CC;stroke:none" cx="33.5" cy="25.5" r="0.25" />
<circle style="fill:#0000CC;stroke:none" cx="34.5" cy="25.5" r="0.25" />
<circle style="fill:#0000CC;stroke:none" cx="35.5" cy="25.5" r="0.25" />
<circle style="fill:#0000CC;stroke:none" cx="31.5" cy="24.5" r="0.25" />
<circle style="fill:#0000CC;stroke:none" cx="32.5" cy="24.5" r="0.25" />
<circle style="fill:#0000CC;stroke:none" cx="31.5" cy="23.5" r="0.25" />
<circle style="fill:#0000CC;stroke:none" cx="32.5" cy="23.5" r="0.25" />
<circle style="fill:#0000CC;stroke:none" cx="35.5" cy="23.5" r="0.25" />
<circle style="fill:#0000CC;stroke:none" cx="31.5" cy="22.5" r="0.25" />
<circle style="fill:#0000CC;stroke:none" cx="32.5" cy="22.5" r="0.25" />
<circle style="fill:#0000CC;stroke:none" cx="33.5" cy="22.5" r="0.25" />
<circle style="fill:#0000CC;stroke:none" cx="34.5" cy="22.5" r="0.25" />
<circle style="fill:#0000CC;stroke:none" cx="35.5" cy="22.5" r="0.25" />
<circle style="fill:#0000CC;stroke:none" cx="31.5" cy="20.5" r="0.25" />
<circle style="fill:#0000CC;stroke:none" cx="35.5" cy="20.5" r="0.25" />
<circle style="fill:#0000CC;stroke:none" cx="31.5" cy="19.5" r="0.25" />
<circle style="fill:#0000CC;stroke:none" cx="32.5" cy="19.5" r="0.25" />
<circle style="fill:#0000CC;stroke:none" cx="33.5" cy="19.5" r="0.25" />
<circle style="fill:#0000CC;stroke:none" cx="34.5" cy="19.5" r="0.25" />
<circle style="fill:#0000CC;stroke:none" cx="35.5" cy="19.5" r="0.25" />
<circle style="fill:#0000CC;stroke:none" cx="31.5" cy="17.5" r="0.25" />
<circle style="fill:#0000CC;stroke:none" cx="35.5" cy="17.5" r="0.25" />
<circle style="fill:#0000CC;stroke:none" cx="32.5" cy="16.5" r="0.25" />
<circle style="fill:#0000CC;stroke:none" cx="33.5" cy="16.5" r="0.25" />
<circle style="fill:#0000CC;stroke:none" cx="34.5" cy="16.5" r="0.25" />
<circle style="fill:#0000CC;stroke:none" cx="35.5" cy="16.5" r="0.25" />
<circle style="fill:#0000CC;stroke:none" cx="36.5" cy="15.5" r="0.25" />
<circle style="fill:#0000CC;stroke:none" cx="33.5" cy="21.5" r="0.25" />
<circle style="fill:#0000CC;stroke:none" cx="32.5" cy="20.5" r="0.25" />
<circle style="fill:#0000CC;stroke:none" cx="33.5" cy="20.5" r="0.25" />
<circle style="fill:#0000CC;stroke:none" cx="33.5" cy="18.5" r="0.25" />
<circle style="fill:#0000CC;stroke:none" cx="32.5" cy="17.5" r="0.25" />
<circle style="fill:#0000CC;stroke:none" cx="33.5" cy="17.5" r="0.25" />
<circle style="fill:#0000CC;stroke:none" cx="32.5" cy="30.5" r="0.25" />
<circle style="fill:#0000CC;stroke:none" cx="33.5" cy="30.5" r="0.25" />
<circle style="fill:#0000CC;stroke:none" cx="33.5" cy="29.5" r="0.25" />
<circle style="fill:#0000CC;stroke:none" cx="32.5" cy="27.5" r="0.25" />
<circle style="fill:#0000CC;stroke:none" cx="33.5" cy="27.5" r="0.25" />
<circle style="fill:#0000CC;stroke:none" cx="33.5" cy="26.5" r="0.25" />
<circle style="fill:#0000CC;stroke:none" cx="33.5" cy="24.5" r="0.25" />
<circle style="fill:#0000CC;stroke:none" cx="33.5" cy="23.5" r="0.25" />
<circle style="fill:#0000CC;stroke:none" cx="33.5" cy="33.5" r="0.25" />
<circle style="fill:#0000CC;stroke:none" cx="33.5" cy="32.5" r="0.25" />
<circle style="fill:#FFCC00;stroke:none" cx="28.5" cy="21.5" r="0.25" />
<circle style="fill:#FFCC00;stroke:none" cx="28.5" cy="20.5" r="0.25" />
<circle style="fill:#FFCC00;stroke:none" cx="24.5" cy="18.5" r="0.25" />
<circle style="fill:#FFCC00;stroke:none" cx="25.5" cy="18.5" r="0.25" />
<circle style="fill:#FFCC00;stroke:none" cx="27.5" cy="18.5" r="0.25" />
<circle style="fill:#FFCC00;stroke:none" cx="28.5" cy="18.5" r="0.25" />
<circle style="fill:#FFCC00;stroke:none" cx="20.5" cy="18.5" r="0.25" />
<circle style="fill:#FFCC00;stroke:none" cx="22.5" cy="18.5" r="0.25" />
<circle style="fill:#FFCC00;stroke:none" cx="23.5" cy="18.5" r="0.25" />
<circle style="fill:#FF00FF;stroke:none" cx="16.5" cy="28.5" r="0.25" />
<circle style="fill:#FF00FF;stroke:none" cx="16.5" cy="27.5" r="0.25" />
<circle style="fill:#FF00FF;stroke:none" cx="13.5" cy="25.5" r="0.25" />
<circle style="fill:#FF00FF;stroke:none" cx="14.5" cy="25.5" r="0.25" />
<circle style="fill:#FF00FF;stroke:none" cx="16.5" cy="25.5" r="0.25" />
<circle style="fill:#FF00FF;stroke:none" cx="16.5" cy="24.5" r="0.25" />
<circle style="fill:#FF00FF;stroke:none" cx="16.5" cy="23.5" r="0.25" />
<circle style="fill:#FF00FF;stroke:none" cx="13.5" cy="22.5" r="0.25" />
<circle style="fill:#FF00FF;stroke:none" cx="14.5" cy="22.5" r="0.25" />
<circle style="fill:#FF00FF;stroke:none" cx="16.5" cy="22.5" r="0.25" />
<circle style="fill:#FF00FF;stroke:none" cx="16.5" cy="20.5" r="0.25" />
<circle style="fill:#FF00FF;stroke:none" cx="16.5" cy="19.5" r="0.25" />
<circle style="fill:#FF00FF;stroke:none" cx="16.5" cy="18.5" r="0.25" />
<circle style="fill:#FF00FF;stroke:none" cx="31.5" cy="15.5" r="0.25" />
<circle style="fill:#FF00FF;stroke:none" cx="31.5" cy="14.5" r="0.25" />
<circle style="fill:#FF00FF;stroke:none" cx="31.5" cy="13.5" r="0.25" />
</svg>
